<?xml version="1.0" standalone="no"?><!DOCTYPE svg PUBLIC "-//W3C//DTD SVG 1.1//EN" "http://www.w3.org/Graphics/SVG/1.1/DTD/svg11.dtd"><svg t="1642314158640" class="icon" viewBox="0 0 1024 1024" version="1.1" xmlns="http://www.w3.org/2000/svg" p-id="4742" width="48" height="48" xmlns:xlink="http://www.w3.org/1999/xlink"><defs><style type="text/css"></style></defs><path d="M945.230769 236.307692h78.769231v78.769231h-78.769231zM945.230769 157.538462h78.769231v78.76923h-78.769231zM945.230769 78.769231h78.769231v78.769231h-78.769231zM945.230769 0h78.769231v78.769231h-78.769231zM866.461538 315.076923h78.769231v78.769231h-78.769231z" fill="#d7dae0" p-id="4743"></path><path d="M866.461538 236.307692h78.769231v78.769231h-78.769231z" fill="#d7dae0" p-id="4744"></path><path d="M866.461538 157.538462h78.769231v78.76923h-78.769231zM866.461538 78.769231h78.769231v78.769231h-78.769231z" fill="#d7dae0" p-id="4745"></path><path d="M866.461538 0h78.769231v78.769231h-78.769231zM787.692308 393.846154h78.76923v78.769231h-78.76923z" fill="#d7dae0" p-id="4746"></path><path d="M787.692308 315.076923h78.76923v78.769231h-78.76923z" fill="#d7dae0" p-id="4747"></path><path d="M787.692308 236.307692h78.76923v78.769231h-78.76923z" fill="#d7dae0" p-id="4748"></path><path d="M787.692308 157.538462h78.76923v78.76923h-78.76923z" fill="#d7dae0" p-id="4749"></path><path d="M787.692308 78.769231h78.76923v78.769231h-78.76923z" fill="#d7dae0" p-id="4750"></path><path d="M787.692308 0h78.76923v78.769231h-78.76923zM708.923077 472.615385h78.769231v78.76923h-78.769231z" fill="#d7dae0" p-id="4751"></path><path d="M708.923077 393.846154h78.769231v78.769231h-78.769231z" fill="#d7dae0" p-id="4752"></path><path d="M708.923077 315.076923h78.769231v78.769231h-78.769231z" fill="#d7dae0" p-id="4753"></path><path d="M708.923077 236.307692h78.769231v78.769231h-78.769231z" fill="#d7dae0" p-id="4754"></path><path d="M708.923077 157.538462h78.769231v78.76923h-78.769231z" fill="#d7dae0" p-id="4755"></path><path d="M708.923077 78.769231h78.769231v78.769231h-78.769231z" fill="#d7dae0" p-id="4756"></path><path d="M708.923077 0h78.769231v78.769231h-78.769231zM630.153846 551.384615h78.769231v78.769231h-78.769231z" fill="#d7dae0" p-id="4757"></path><path d="M630.153846 472.615385h78.769231v78.76923h-78.769231z" fill="#d7dae0" p-id="4758"></path><path d="M630.153846 393.846154h78.769231v78.769231h-78.769231z" fill="#d7dae0" p-id="4759"></path><path d="M630.153846 315.076923h78.769231v78.769231h-78.769231z" fill="#d7dae0" p-id="4760"></path><path d="M630.153846 236.307692h78.769231v78.769231h-78.769231z" fill="#d7dae0" p-id="4761"></path><path d="M630.153846 157.538462h78.769231v78.76923h-78.769231z" fill="#d7dae0" p-id="4762"></path><path d="M630.153846 78.769231h78.769231v78.769231h-78.769231zM551.384615 866.461538h78.769231v78.769231h-78.769231zM551.384615 787.692308h78.769231v78.76923h-78.769231zM551.384615 630.153846h78.769231v78.769231h-78.769231z" fill="#d7dae0" p-id="4763"></path><path d="M551.384615 551.384615h78.769231v78.769231h-78.769231z" fill="#d7dae0" p-id="4764"></path><path d="M551.384615 472.615385h78.769231v78.76923h-78.769231z" fill="#d7dae0" p-id="4765"></path><path d="M551.384615 393.846154h78.769231v78.769231h-78.769231z" fill="#d7dae0" p-id="4766"></path><path d="M551.384615 315.076923h78.769231v78.769231h-78.769231z" fill="#d7dae0" p-id="4767"></path><path d="M551.384615 236.307692h78.769231v78.769231h-78.769231z" fill="#d7dae0" p-id="4768"></path><path d="M551.384615 157.538462h78.769231v78.76923h-78.769231zM472.615385 866.461538h78.76923v78.769231h-78.76923z" fill="#d7dae0" p-id="4769"></path><path d="M472.615385 787.692308h78.76923v78.76923h-78.76923z" fill="#d7dae0" p-id="4770"></path><path d="M472.615385 708.923077h78.76923v78.769231h-78.76923z" fill="#d7dae0" p-id="4771"></path><path d="M472.615385 630.153846h78.76923v78.769231h-78.76923z" fill="#d7dae0" p-id="4772"></path><path d="M472.615385 551.384615h78.76923v78.769231h-78.76923z" fill="#d7dae0" p-id="4773"></path><path d="M472.615385 472.615385h78.76923v78.76923h-78.76923z" fill="#d7dae0" p-id="4774"></path><path d="M472.615385 393.846154h78.76923v78.769231h-78.76923z" fill="#d7dae0" p-id="4775"></path><path d="M472.615385 315.076923h78.76923v78.769231h-78.76923z" fill="#d7dae0" p-id="4776"></path><path d="M472.615385 236.307692h78.76923v78.769231h-78.76923zM393.846154 866.461538h78.769231v78.769231h-78.769231z" fill="#d7dae0" p-id="4777"></path><path d="M393.846154 787.692308h78.769231v78.76923h-78.769231z" fill="#d7dae0" p-id="4778"></path><path d="M393.846154 708.923077h78.769231v78.769231h-78.769231z" fill="#d7dae0" p-id="4779"></path><path d="M393.846154 630.153846h78.769231v78.769231h-78.769231z" fill="#d7dae0" p-id="4780"></path><path d="M393.846154 551.384615h78.769231v78.769231h-78.769231zM393.846154 472.615385h78.769231v78.76923h-78.769231z" fill="#d7dae0" p-id="4781"></path><path d="M393.846154 393.846154h78.769231v78.769231h-78.769231z" fill="#d7dae0" p-id="4782"></path><path d="M393.846154 315.076923h78.769231v78.769231h-78.769231zM315.076923 787.692308h78.769231v78.76923h-78.769231z" fill="#d7dae0" p-id="4783"></path><path d="M315.076923 708.923077h78.769231v78.769231h-78.769231zM315.076923 630.153846h78.769231v78.769231h-78.769231z" fill="#d7dae0" p-id="4784"></path><path d="M315.076923 551.384615h78.769231v78.769231h-78.769231z" fill="#d7dae0" p-id="4785"></path><path d="M315.076923 472.615385h78.769231v78.76923h-78.769231z" fill="#d7dae0" p-id="4786"></path><path d="M315.076923 393.846154h78.769231v78.769231h-78.769231zM236.307692 787.692308h78.769231v78.76923h-78.769231zM236.307692 708.923077h78.769231v78.769231h-78.769231z" fill="#d7dae0" p-id="4787" data-spm-anchor-id="a313x.7781069.0.i4" class="selected"></path><path d="M236.307692 630.153846h78.769231v78.769231h-78.769231zM236.307692 551.384615h78.769231v78.769231h-78.769231z" fill="#d7dae0" p-id="4788"></path><path d="M236.307692 472.615385h78.769231v78.76923h-78.769231zM157.538462 866.461538h78.76923v78.769231H157.538462z" fill="#d7dae0" p-id="4789"></path><path d="M157.538462 787.692308h78.76923v78.76923H157.538462z" fill="#d7dae0" p-id="4790"></path><path d="M157.538462 708.923077h78.76923v78.769231H157.538462zM157.538462 630.153846h78.76923v78.769231H157.538462z" fill="#d7dae0" p-id="4791"></path><path d="M157.538462 551.384615h78.76923v78.769231H157.538462zM157.538462 472.615385h78.76923v78.76923H157.538462z" fill="#d7dae0" p-id="4792"></path><path d="M157.538462 393.846154h78.76923v78.769231H157.538462zM78.769231 945.230769h78.769231v78.769231H78.769231z" fill="#d7dae0" p-id="4793"></path><path d="M78.769231 866.461538h78.769231v78.769231H78.769231z" fill="#d7dae0" p-id="4794"></path><path d="M78.769231 787.692308h78.769231v78.76923H78.769231zM78.769231 551.384615h78.769231v78.769231H78.769231zM78.769231 472.615385h78.769231v78.76923H78.769231zM78.769231 393.846154h78.769231v78.769231H78.769231zM0 945.230769h78.769231v78.769231H0zM0 866.461538h78.769231v78.769231H0z" fill="#d7dae0" p-id="4795"></path></svg>